<svg xmlns="http://www.w3.org/2000/svg" viewBox="0 0 100.71 112.82"><defs><style>.cls-1{fill:#86c3d0;}.cls-2{fill:#fff;}.cls-3{font-size:12px;fill:#1d1d1b;font-family:MyriadPro-Regular, Myriad Pro;}.cls-4{letter-spacing:-0.03em;}.cls-5{letter-spacing:0em;}.cls-6{letter-spacing:-0.01em;}.cls-7{letter-spacing:0em;}.cls-8{letter-spacing:0em;}</style></defs><g id="API"><path class="cls-1" d="M50.35,13.37a43,43,0,1,0,43.05,43A43,43,0,0,0,50.35,13.37Z"/><path class="cls-2" d="M71.7,40.81H46.56a.86.86,0,0,1,0-1.72H71.7a.86.86,0,0,1,0,1.72Z"/><path class="cls-2" d="M36.58,40.81H29a.86.86,0,0,1,0-1.72h7.57a.86.86,0,0,1,0,1.72Z"/><path class="cls-2" d="M71.7,57.26H66.32a.86.86,0,1,1,0-1.71H71.7a.86.86,0,1,1,0,1.71Z"/><path class="cls-2" d="M56.34,57.26H29a.86.86,0,1,1,0-1.71H56.34a.86.86,0,1,1,0,1.71Z"/><path class="cls-2" d="M71.7,73.72H55.35a.86.86,0,1,1,0-1.71H71.7a.86.86,0,1,1,0,1.71Z"/><path class="cls-2" d="M45.36,73.72H29A.86.86,0,1,1,29,72H45.36a.86.86,0,1,1,0,1.71Z"/><path class="cls-2" d="M41.57,45.8A5.85,5.85,0,1,1,47.42,40,5.86,5.86,0,0,1,41.57,45.8Zm0-10A4.13,4.13,0,1,0,45.7,40,4.13,4.13,0,0,0,41.57,35.82Z"/><path class="cls-2" d="M61.33,62.26a5.85,5.85,0,1,1,5.85-5.86A5.86,5.86,0,0,1,61.33,62.26Zm0-10a4.14,4.14,0,1,0,4.13,4.13A4.13,4.13,0,0,0,61.33,52.27Z"/><path class="cls-2" d="M50.36,78.71a5.85,5.85,0,1,1,5.85-5.84A5.86,5.86,0,0,1,50.36,78.71Zm0-10a4.14,4.14,0,1,0,4.13,4.15A4.14,4.14,0,0,0,50.36,68.72Z"/></g><g id="HOSTING"><text class="cls-3" transform="translate(17.93 -4.98)">IP <tspan class="cls-4" x="11.8" y="0">F</tspan><tspan class="cls-5" x="17.33" y="0">il</tspan><tspan class="cls-6" x="22.97" y="0">t</tspan><tspan class="cls-7" x="26.87" y="0">e</tspan><tspan class="cls-8" x="32.88" y="0">r</tspan><tspan x="36.85" y="0">ing</tspan></text></g></svg>